<svg width="82" height="60" viewBox="0 0 82 60" fill="none" xmlns="http://www.w3.org/2000/svg">
<path d="M81.5 29.9998C81.5 34.7998 79.7 39.2998 76.3 42.6998C75.8 43.2998 75 43.4998 74.3 43.4998C73.6 43.4998 72.9 43.1998 72.3 42.6998C71.2 41.5998 71.2 39.8998 72.3 38.7998C74.6 36.3998 75.9 33.2998 75.9 29.9998C75.9 23.0998 70.3 17.3998 63.3 17.3998H42.8H32.4L39.5 24.4998C40.6 25.5998 40.6 27.3998 39.5 28.3998C39 28.8998 38.2 29.1998 37.5 29.1998C36.8 29.1998 36.1 28.8998 35.5 28.3998L23.7 16.6998C23.6 16.5998 23.5 16.3998 23.4 16.2998C23.3 16.1998 23.3 16.0998 23.3 16.0998C23.3 15.9998 23.2 15.8998 23.2 15.8998C23.2 15.7998 23.1 15.6998 23.1 15.5998C23.1 15.4998 23.1 15.4998 23 15.3998C22.9 14.9998 22.9 14.6998 23 14.2998V14.1998C23 14.0998 23.1 13.8998 23.1 13.7998C23.1 13.6998 23.2 13.6998 23.2 13.5998C23.3 13.4998 23.3 13.3998 23.4 13.2998C23.4 13.1998 23.5 13.1998 23.6 13.0998C23.7 12.9998 23.7 12.9998 23.8 12.8998L35.7 0.999805C36.8 -0.100195 38.6 -0.100195 39.6 0.999805C40.7 2.0998 40.7 3.8998 39.6 4.8998L32.5 11.9998H42.9H63.4C73.4 11.8998 81.5 19.9998 81.5 29.9998ZM58.8 46.4998C58.8 46.3998 58.9 46.3998 58.9 46.2998C59 46.1998 59 45.9998 59 45.8998V45.7998C59.1 45.3998 59.1 45.0998 59 44.6998C59 44.5998 59 44.5998 58.9 44.4998C58.9 44.3998 58.8 44.2998 58.8 44.1998C58.8 44.0998 58.7 43.9998 58.6 43.8998C58.6 43.7998 58.5 43.7998 58.5 43.6998C58.4 43.4998 58.3 43.3998 58.1 43.2998L46.4 31.4998C45.3 30.3998 43.5 30.3998 42.5 31.4998C41.4 32.5998 41.4 34.3998 42.5 35.3998L49.6 42.4998H39.2H18.7C11.8 42.4998 6.09998 36.8998 6.09998 29.8998C6.09998 26.5998 7.39998 23.4998 9.69998 21.0998C10.8 19.9998 10.8 18.1998 9.69998 17.1998C8.59998 16.0998 6.79998 16.0998 5.79998 17.1998C2.39998 20.5998 0.599976 25.0998 0.599976 29.8998C0.599976 39.8998 8.69997 48.0998 18.8 48.0998H39.3H49.7L42.6 55.1998C41.5 56.2998 41.5 58.0998 42.6 59.0998C43.1 59.5998 43.9 59.8998 44.6 59.8998C45.3 59.8998 46 59.5998 46.6 59.0998L58.5 47.1998C58.6 47.0998 58.6 46.9998 58.7 46.9998C58.7 46.8998 58.8 46.8998 58.8 46.7998C58.7 46.7998 58.8 46.6998 58.8 46.4998Z" fill="#777777"/>
</svg>
