<svg id="Layer_1" data-name="Layer 1" xmlns="http://www.w3.org/2000/svg" viewBox="0 0 400 300"><defs><style>.cls-1{font-size:38.44px;font-family:WorkSans-Bold, Work Sans;font-weight:700;}.cls-1,.cls-11{fill:#4caf50;}.cls-2{letter-spacing:-0.01em;}.cls-3{letter-spacing:0em;}.cls-4{letter-spacing:0em;}.cls-5{font-size:8.83px;font-family:AvenirNextLTPro-Medium, Avenir Next LT Pro;font-weight:500;}.cls-6{letter-spacing:-0.01em;}.cls-7{letter-spacing:-0.04em;}.cls-8{letter-spacing:0em;}.cls-9{letter-spacing:-0.03em;}.cls-10{letter-spacing:0em;}</style></defs><title>trade xplora</title><text class="cls-1" transform="translate(129.98 159.4)">t<tspan class="cls-2" x="16.72" y="0">r</tspan><tspan class="cls-3" x="33.02" y="0">a</tspan><tspan class="cls-4" x="55.21" y="0">de</tspan></text><path d="M247.22,159.4,240.73,151l-6.39,8.42H232l7.61-9.84-7.23-9.38h2.46l6,7.84,5.84-7.84h2.31L242,149.44l7.66,10Z"/><path d="M269.35,142.45a12.59,12.59,0,0,1,0,14.68,8.19,8.19,0,0,1-6.44,2.66,7.93,7.93,0,0,1-4.33-1.19,7.15,7.15,0,0,1-2.75-3.27v15.25h-1.92v-30.4h1.73l.12,4.34a7,7,0,0,1,2.67-3.48,7.88,7.88,0,0,1,4.48-1.25A8.19,8.19,0,0,1,269.35,142.45Zm-1.44,13.43a10.8,10.8,0,0,0,0-12.18,6.49,6.49,0,0,0-5.23-2.21,6.23,6.23,0,0,0-4.85,2,8.59,8.59,0,0,0-2,5.57v1.38a8.64,8.64,0,0,0,2,5.58,6.22,6.22,0,0,0,4.85,2A6.49,6.49,0,0,0,267.91,155.88Z"/><path d="M279.09,154.75a4.25,4.25,0,0,0,.56,2.5,2.19,2.19,0,0,0,1.87.73,6.06,6.06,0,0,0,1.3-.12,5.6,5.6,0,0,0,1.23-.42l-.27,1.85a6,6,0,0,1-2.53.5,3.8,3.8,0,0,1-3.08-1.18,5.55,5.55,0,0,1-1-3.67v-23.6h1.92Z"/><path d="M302.33,142.47a12.2,12.2,0,0,1,0,14.64,9.73,9.73,0,0,1-13.41,0,12.16,12.16,0,0,1,0-14.64,9.73,9.73,0,0,1,13.41,0Zm-12,1.21a10.68,10.68,0,0,0,0,12.22,7.43,7.43,0,0,0,10.61,0,10.68,10.68,0,0,0,0-12.22,7.43,7.43,0,0,0-10.61,0Z"/><path d="M320.88,140.45l-.5,1.81a3.85,3.85,0,0,0-2.46-.7,4.74,4.74,0,0,0-2.75.91A6.34,6.34,0,0,0,313.1,145a8.16,8.16,0,0,0-.79,3.63V159.4h-1.92V140.18H312l.23,3.92a6.87,6.87,0,0,1,2.41-3.17,6.37,6.37,0,0,1,3.82-1.14A4,4,0,0,1,320.88,140.45Z"/><path d="M341.37,157.86l-.11,1.54a3.86,3.86,0,0,1-1.89.39,3.29,3.29,0,0,1-2.19-.73,3.58,3.58,0,0,1-1-2.54,5.94,5.94,0,0,1-2.84,2.4,10.06,10.06,0,0,1-4.12.87,7.51,7.51,0,0,1-4.55-1.27A4.24,4.24,0,0,1,323,154.9q0-4.46,7.3-5.76l5.88-1v-1.69a4.79,4.79,0,0,0-1.36-3.62,5.38,5.38,0,0,0-3.87-1.3,6,6,0,0,0-6.15,4.07l-1.46-1.07a6.68,6.68,0,0,1,2.81-3.48,9,9,0,0,1,4.8-1.22,7.8,7.8,0,0,1,5.25,1.64,5.91,5.91,0,0,1,1.91,4.75v9.92c0,1.36.59,2,1.76,2A3.41,3.41,0,0,0,341.37,157.86Zm-8.76-.32a6.35,6.35,0,0,0,2.56-1.66,3.75,3.75,0,0,0,1-2.63v-3.57l-5.26,1a11.42,11.42,0,0,0-4.54,1.61A3.15,3.15,0,0,0,325,154.9a2.69,2.69,0,0,0,1.19,2.37,5.75,5.75,0,0,0,3.31.82A9.25,9.25,0,0,0,332.61,157.54Z"/><text class="cls-5" transform="translate(262.83 170.24)">buy <tspan class="cls-6" x="17.42" y="0">e</tspan><tspan x="22.42" y="0">as</tspan><tspan class="cls-7" x="31.13" y="0">y</tspan><tspan class="cls-8" x="35.26" y="0">..</tspan><tspan class="cls-9" x="39.86" y="0">.</tspan><tspan x="41.89" y="0" xml:space="preserve"> sell </tspan><tspan class="cls-6" x="59.88" y="0">e</tspan><tspan class="cls-10" x="64.89" y="0">asy</tspan></text><path class="cls-11" d="M117.73,127.55H63.63A5,5,0,0,0,59.3,135L70,156.89a12.11,12.11,0,0,0,6,5.18,8.78,8.78,0,0,0,4,1,7.22,7.22,0,0,0,1-.07,8.85,8.85,0,0,0,7.79-8.77,8.69,8.69,0,0,0,0-.89c0-.1,0-.19,0-.29s0-.33-.07-.49l0,0a.5.5,0,0,0,0-.12.81.81,0,0,0-.63-.61c-.25-.06-.49-.14-.73-.22l-.56-.17a5.83,5.83,0,0,1-.62-.28,4.09,4.09,0,0,1-.52-.23c-.21-.11-.4-.23-.59-.35l-.48-.29c-.19-.13-.36-.28-.54-.43s-.29-.21-.43-.33-.33-.33-.5-.5l-.37-.37c-.16-.19-.31-.39-.46-.59s-.21-.25-.3-.38-.3-.48-.44-.72-.14-.23-.2-.35a7.32,7.32,0,0,1-.51-1.14,10.18,10.18,0,0,1,9.67-13.76,10.18,10.18,0,0,1,9.39,13.79,10.94,10.94,0,0,1-.47,1,3.79,3.79,0,0,1-.2.34c-.12.22-.24.44-.37.64l-.27.36-.41.55c-.1.12-.22.23-.32.34s-.29.33-.45.48l-.38.32c-.16.14-.31.28-.48.41s-.28.19-.42.29-.33.24-.51.35-.31.16-.46.24l-.54.29-.5.19a6.19,6.19,0,0,1-.6.23l0,0a1,1,0,0,0-.17.1.73.73,0,0,0-.17.18,1,1,0,0,0-.1.17s0,0,0,.06a.06.06,0,0,0,0,0v0c0,.21-.07.42-.1.63s0,.22-.06.33a8.6,8.6,0,0,0-.06,1,8.83,8.83,0,0,0,8.83,8.83h.46a8.72,8.72,0,0,0,2-.34l.18-.05a12.05,12.05,0,0,0,7.3-5.62L122.05,135A5,5,0,0,0,117.73,127.55Z"/><path class="cls-11" d="M96.61,145.19h0A7.22,7.22,0,1,0,83.73,145h0a7.24,7.24,0,0,0,4.59,3.81,7,7,0,0,0,1.91.26,7.23,7.23,0,0,0,6.38-3.85Z"/><path class="cls-11" d="M84.37,169.79h0a3.9,3.9,0,1,0-7-.12h0a3.93,3.93,0,0,0,2.48,2.06,3.88,3.88,0,0,0,1,.14,3.94,3.94,0,0,0,1.5-.3A3.87,3.87,0,0,0,84.37,169.79Z"/><path class="cls-11" d="M105.5,169.79h0a3.9,3.9,0,1,0-7-.12h0a3.88,3.88,0,0,0,2.48,2.06,3.82,3.82,0,0,0,1,.14,3.88,3.88,0,0,0,3.44-2.08Z"/></svg>