<svg id="Layer_1" data-name="Layer 1" xmlns="http://www.w3.org/2000/svg" viewBox="0 0 303.37 46.68"><defs><style>.cls-1{font-size:38.44px;font-family:WorkSans-Bold, Work Sans;font-weight:700;}.cls-1,.cls-5{fill:#4caf50;}.cls-2{letter-spacing:-0.01em;}.cls-3{letter-spacing:0em;}.cls-4{letter-spacing:0em;}.cls-6{font-size:39.5px;font-family:WorkSans-SemiBold, Work Sans;font-weight:600;}.cls-7{letter-spacing:-0.01em;}.cls-8{letter-spacing:-0.01em;}</style></defs><title>trade xplora bold</title><text class="cls-1" transform="translate(71.35 31.91)">t<tspan class="cls-2" x="16.72" y="0">r</tspan><tspan class="cls-3" x="33.02" y="0">a</tspan><tspan class="cls-4" x="55.21" y="0">de</tspan></text><path class="cls-5" d="M117.73,127.55H63.63A5,5,0,0,0,59.3,135L70,156.89a12.11,12.11,0,0,0,6,5.18,8.78,8.78,0,0,0,4,1,7.22,7.22,0,0,0,1-.07,8.85,8.85,0,0,0,7.79-8.77,8.69,8.69,0,0,0,0-.89c0-.1,0-.19,0-.29s0-.33-.07-.49l0,0a.5.5,0,0,0,0-.12.81.81,0,0,0-.63-.61c-.25-.06-.49-.14-.73-.22l-.56-.17a5.83,5.83,0,0,1-.62-.28,4.09,4.09,0,0,1-.52-.23c-.21-.11-.4-.23-.59-.35l-.48-.29c-.19-.13-.36-.28-.54-.43s-.29-.21-.43-.33-.33-.33-.5-.5l-.37-.37c-.16-.19-.31-.39-.46-.59s-.21-.25-.3-.38-.3-.48-.44-.72-.14-.23-.2-.35a7.32,7.32,0,0,1-.51-1.14,10.18,10.18,0,0,1,9.67-13.76,10.18,10.18,0,0,1,9.39,13.79,10.94,10.94,0,0,1-.47,1,3.79,3.79,0,0,1-.2.34c-.12.22-.24.44-.37.64l-.27.36-.41.55c-.1.12-.22.23-.32.34s-.29.33-.45.48l-.38.32c-.16.14-.31.28-.48.41s-.28.19-.42.29-.33.24-.51.35-.31.16-.46.24l-.54.29-.5.19a6.19,6.19,0,0,1-.6.23l0,0a1,1,0,0,0-.17.1.73.73,0,0,0-.17.18,1,1,0,0,0-.1.17s0,0,0,.06a.06.06,0,0,0,0,0v0c0,.21-.07.42-.1.63s0,.22-.06.33a8.6,8.6,0,0,0-.06,1,8.83,8.83,0,0,0,8.83,8.83h.46a8.72,8.72,0,0,0,2-.34l.18-.05a12.05,12.05,0,0,0,7.3-5.62L122.05,135A5,5,0,0,0,117.73,127.55Z" transform="translate(-58.63 -127.49)"/><path class="cls-5" d="M96.61,145.19h0A7.22,7.22,0,1,0,83.73,145h0a7.24,7.24,0,0,0,4.59,3.81,7,7,0,0,0,1.91.26,7.23,7.23,0,0,0,6.38-3.85Z" transform="translate(-58.63 -127.49)"/><path class="cls-5" d="M84.37,169.79h0a3.9,3.9,0,1,0-7-.12h0a3.93,3.93,0,0,0,2.48,2.06,3.88,3.88,0,0,0,1,.14,3.94,3.94,0,0,0,1.5-.3A3.87,3.87,0,0,0,84.37,169.79Z" transform="translate(-58.63 -127.49)"/><path class="cls-5" d="M105.5,169.79h0a3.9,3.9,0,1,0-7-.12h0a3.88,3.88,0,0,0,2.48,2.06,3.82,3.82,0,0,0,1,.14,3.88,3.88,0,0,0,3.44-2.08Z" transform="translate(-58.63 -127.49)"/><text class="cls-6" transform="translate(172.92 33.29) scale(1.07 1)">xplo<tspan class="cls-7" x="83.77" y="0">r</tspan><tspan class="cls-8" x="100.09" y="0">a</tspan></text></svg>