<?xml version="1.0" encoding="iso-8859-1"?>
<!-- Generator: Adobe Illustrator 19.0.0, SVG Export Plug-In . SVG Version: 6.00 Build 0)  -->
<svg version="1.1" id="Capa_1" xmlns="http://www.w3.org/2000/svg" xmlns:xlink="http://www.w3.org/1999/xlink" x="0px" y="0px"
	 viewBox="0 0 443.664 443.664" style="enable-background:new 0 0 443.664 443.664;" xml:space="preserve">
<path style="fill:#431C10;" d="M186.324,326.341l-64.8,112c-2.4,4-7.2,5.2-10.8,2.8c-2.4-1.2-3.6-3.6-4-5.6l0,0l-8.8-58l-54.8,21.6
	c-4,1.6-8.8-0.4-10.4-4.4c-0.8-2.4-0.8-5.2,0.8-7.2l64.4-111.6c2.4-4,7.2-5.2,10.8-2.8c0.4,0.4,0.8,0.4,1.2,0.8l0,0
	c0.8,0.8,1.6,1.2,2.8,1.6c0.8,0.4,2,0.4,3.2,0.4l0,0h36.8c3.2,0,5.6,1.6,6.8,4l0,0l16.4,29.2c0,0,0,0.4,0.4,0.4l0,0
	c0,0.4,0,0.4,0,0.4l0,0l0,0c0,0,0,0,0,0.4c0.8,1.2,1.2,2,2.4,2.8c0.8,0.8,2,1.2,3.2,1.6c4.4,1.2,6.8,5.6,5.6,10
	C186.724,325.541,186.724,325.941,186.324,326.341 M346.324,277.541l64,111.2c2.4,4,0.8,8.8-2.8,10.8c-2,1.2-4.8,1.2-6.8,0.4l0,0
	l-54.8-21.6l-8.4,58.4c-0.8,4.4-4.8,7.6-9.2,6.8c-2.8-0.4-4.8-2-6-4.4l-65.2-112.4c-2.4-4-0.8-8.8,2.8-10.8c1.2-0.8,2.4-0.8,3.6-1.2
	l0,0c1.6,0,2.8-0.4,4.4-1.2c1.2-0.8,2.4-2,3.2-3.2l18.4-31.6c1.6-2.8,4.4-4,7.6-4l33.2,0.4c0.4,0,0.4,0,0.8,0h0.4
	c0.8,0,1.6,0,2.4-0.4c0.8,0,1.2-0.4,2-0.8c4-2,8.8-0.8,10.8,3.2C346.324,277.141,346.324,277.141,346.324,277.541z"/>
<path style="fill:#FCB912;" d="M220.724,20.741l32-18.4c8.4-4.8,18.8-2,23.6,6.4c0.4,0.4,0.4,0.8,0.8,1.2l16.4,29.2h36.8
	c9.6,0,17.2,7.6,17.2,17.2v0.4l0,0l-0.4,34.4l31.6,18.4c8.4,4.8,11.2,15.2,6.4,23.6c0,0.4-0.4,0.4-0.4,0.8l-17.2,28.8l18.4,32
	c4.8,8.4,2,18.8-6.4,23.6c-0.4,0.4-0.8,0.4-1.2,0.8l-29.2,16.4v36.8c0,9.6-7.6,17.2-17.2,17.2h-0.4l0,0l-34.4-0.4l-19.2,31.2
	c-4.8,8.4-15.2,11.2-23.6,6.4c-0.4-0.4-0.4-0.8-0.8-0.8l-28.8-17.2l-32,18.4c-8.4,4.8-18.8,2-23.6-6.4c-0.4-0.4-0.4-0.8-0.8-1.2
	l-16.4-29.2h-36.8c-9.6,0-17.2-7.6-17.2-17.2v-0.4l0,0l0.4-34.4l-31.6-18.4c-8.4-4.8-11.2-15.2-6.4-23.6c0-0.4,0.4-0.4,0.4-0.8
	l17.2-28.8l-18.4-32c-4.8-8.4-2-18.8,6.4-23.6c0.4-0.4,0.8-0.4,1.2-0.8l29.2-16.4v-36.8c0-9.6,7.6-17.2,17.2-17.2h0.4l0,0l34.4,0.4
	l18.4-31.6c4.8-8.4,15.2-11.2,23.6-6.4c0.4,0,0.4,0.4,0.8,0.4L220.724,20.741z"/>
<g>
	<path style="fill:#F2A31E;" d="M384.724,194.741l-18.4-32l17.2-28.8c0-0.4,0.4-0.4,0.4-0.8c4.8-8.4,2-18.8-6.4-23.6l-31.6-18.4
		l0.4-34.4l0,0v-0.4c0-9.6-7.6-17.2-17.2-17.2h-36.8l-16.4-29.2c0-0.4-0.4-0.8-0.8-1.2c-4.4-7.6-14-10.8-22-7.2c3.2,1.6,6,4,8,7.2
		c0.4,0.4,0.4,0.8,0.8,1.2l16.4,29.2h36.8c9.6,0,17.2,7.6,17.2,17.2v0.4l0,0l-0.4,34.4l31.6,18.4c8.4,4.8,11.2,15.2,6.4,23.6
		c0,0.4-0.4,0.4-0.4,0.8l-17.2,28.8l18.4,32c4.8,8.4,2,18.8-6.4,23.6c-0.4,0.4-0.8,0.4-1.2,0.8l-29.2,16.4v36.8
		c0,8.8-6.8,16-15.2,16.8h12l0,0h0.4c9.6,0,17.2-7.6,17.2-17.2v-36.8l29.2-16.4c0.4,0,0.8-0.4,1.2-0.8
		C386.724,213.541,389.524,203.141,384.724,194.741z"/>
	<path style="fill:#F2A31E;" d="M282.324,288.341l-18.4,31.6c-2,3.2-4.8,5.6-8,7.2c8,3.6,17.2,0.8,21.6-7.2l18.4-31.6H282.324z"/>
	<path style="fill:#F2A31E;" d="M294.724,99.141c-16.8-16.8-40-27.2-65.6-27.2s-48.8,10.4-65.6,27.2s-27.2,40-27.2,65.6
		s10.4,48.8,27.2,65.6s40,27.2,65.6,27.2s48.8-10.4,65.6-27.2c16.8-16.8,27.2-40,27.2-65.6S311.524,115.941,294.724,99.141
		 M229.124,55.941c30,0,57.2,12,77.2,32c19.6,19.6,32,46.8,32,77.2c0,30-12,57.2-32,77.2c-19.6,19.6-46.8,32-77.2,32
		c-30,0-57.2-12-77.2-32c-19.6-19.6-32-46.8-32-77.2c0-30,12-57.2,32-77.2S199.124,55.941,229.124,55.941z"/>
	<path style="fill:#F2A31E;" d="M236.724,113.141l9.6,29.6h31.2c4.4,0,8,3.6,8,8c0,2.8-1.2,5.2-3.2,6.4l0,0l-25.2,18l9.6,29.6
		c1.2,4.4-0.8,8.8-5.2,10.4c-2.8,0.8-5.6,0.4-7.6-1.6l-24.4-18l-25.6,18.4c-3.6,2.8-8.8,2-11.2-1.6c-1.6-2-2-4.8-1.2-7.2l0,0
		l9.6-29.6l-25.2-18c-3.6-2.8-4.4-7.6-2-11.2c1.6-2.4,4.4-3.6,7.2-3.2h30.4l9.6-29.6c1.2-4.4,6-6.4,10-5.2
		C234.324,108.741,235.924,110.741,236.724,113.141"/>
</g>
<path style="fill:#FCF8CD;" d="M288.324,99.141c-16.8-16.8-40-27.2-65.6-27.2s-48.8,10.4-65.6,27.2s-27.2,40-27.2,65.6
	s10.4,48.8,27.2,65.6s40,27.2,65.6,27.2s48.8-10.4,65.6-27.2c16.8-16.8,27.2-40,27.2-65.6S305.124,115.941,288.324,99.141
	 M222.724,55.941c30,0,57.2,12,77.2,32c19.6,19.6,32,46.8,32,77.2c0,30-12,57.2-32,77.2c-19.6,19.6-46.8,32-77.2,32
	c-30,0-57.2-12-77.2-32c-19.6-20.4-31.6-47.6-31.6-77.6s12-57.2,32-77.2C165.524,67.941,192.724,55.941,222.724,55.941z"/>
<path style="fill:#FCF8CF;" d="M230.324,113.141l9.6,29.6h31.2c4.4,0,8,3.6,8,8c0,2.8-1.2,5.2-3.2,6.4l0,0l-25.2,18l9.6,29.6
	c1.2,4.4-0.8,8.8-5.2,10.4c-2.8,0.8-5.6,0.4-7.6-1.6l-24.4-18l-25.6,18.4c-3.6,2.8-8.8,2-11.2-1.6c-1.6-2-2-4.8-1.2-7.2l0,0
	l9.6-29.6l-25.2-18c-3.6-2.8-4.4-7.6-2-11.2c1.6-2.4,4.4-3.6,7.2-3.2h30.4l9.6-29.6c1.2-4.4,6-6.4,10-5.2
	C227.924,108.741,229.524,110.741,230.324,113.141"/>
<g>
</g>
<g>
</g>
<g>
</g>
<g>
</g>
<g>
</g>
<g>
</g>
<g>
</g>
<g>
</g>
<g>
</g>
<g>
</g>
<g>
</g>
<g>
</g>
<g>
</g>
<g>
</g>
<g>
</g>
</svg>
