<svg height="512pt" viewBox="-21 0 512 512" width="512pt" xmlns="http://www.w3.org/2000/svg"><path d="m370.96875 314.539062v186.3125c0 6.15625-4.992188 11.148438-11.148438 11.148438h-252.695312c-6.15625 0-11.148438-4.992188-11.148438-11.148438v-189.222656l-80.894531-23.457031c-7.171875-2.078125-11.679687-9.160156-10.527343-16.539063l14.109374-90.300781c2.292969-14.660156 12.164063-27.019531 25.957032-32.496093l106.925781-42.457032h167.042969l59.164062 23.492188 28.839844 11.449218 18.921875 7.515626c13.792969 5.476562 23.664063 17.835937 25.957031 32.496093l14.109375 90.300781c1.152344 7.378907-3.355469 14.460938-10.527343 16.539063zm0 0" fill="#68a1d7"/><path d="m370.96875 314.539062v186.3125c0 6.15625-4.992188 11.148438-11.148438 11.148438h-29.039062c6.15625 0 11.148438-4.992188 11.148438-11.148438v-200.84375c0-6.566406 4.261718-12.367187 10.527343-14.332031l18.511719-5.808593zm0 0" fill="#5d8fbf"/><path d="m370.96875 314.539062 84.085938-26.367187c7.167968-2.078125 11.675781-9.164063 10.523437-16.539063l-14.109375-90.300781c-2.289062-14.664062-12.160156-27.023437-25.953125-32.5l-18.921875-7.511719-28.839844-11.453124-59.164062-23.492188h-167.046875 138.007812l59.164063 23.492188 28.839844 11.453124 18.917968 7.511719c13.792969 5.476563 23.664063 17.839844 25.957032 32.5l14.109374 90.300781c1.152344 7.375-3.355468 14.460938-10.527343 16.539063l-55.042969 17.261719" fill="#5d8fbf"/><g fill="#addff5"><path d="m462.40625 254.300781-90.769531 24.976563-.667969 35.265625 84.0625-26.59375c7.488281-2.351563 12.011719-9.953125 10.503906-17.65625zm0 0"/><path d="m7.792969 254.300781 88.25 24.285157v34.753906l-80.875-25.390625c-7.488281-2.351563-12.011719-9.953125-10.503907-17.65625zm0 0"/><path d="m359.71875 512h-252.492188c-6.214843 0-11.25-5.035156-11.25-11.25v-31.863281h274.992188v31.863281c0 6.214844-5.035156 11.25-11.25 11.25zm0 0"/></g><path d="m341.929688 500.851562c0 6.15625-4.992188 11.148438-11.148438 11.148438h28.9375c6.214844 0 11.25-5.035156 11.25-11.25v-31.863281h-29.039062zm0 0" fill="#97c3d6"/><path d="m233.472656 259.101562c-4.265625 0-7.726562-3.457031-7.726562-7.722656v-96.441406c0-4.269531 3.460937-7.726562 7.726562-7.726562s7.726563 3.457031 7.726563 7.726562v96.441406c0 4.265625-3.460938 7.722656-7.726563 7.722656zm0 0" fill="#365e80"/><path d="m233.472656 154.890625 66.703125-72.773437h-133.40625zm0 0" fill="#365e80"/><path d="m278.570312 112.480469-35.777343-27.820313v-10.3125c17.023437-3.570312 29.847656-18.703125 29.847656-36.773437 0-20.71875-16.855469-37.574219-37.574219-37.574219-20.714844 0-37.570312 16.855469-37.570312 37.574219 0 4.265625 3.457031 7.722656 7.722656 7.722656 4.269531 0 7.726562-3.457031 7.726562-7.722656 0-12.199219 9.921876-22.125 22.121094-22.125 12.199219 0 22.121094 9.925781 22.121094 22.125 0 12.195312-9.921875 22.121093-22.121094 22.121093-4.265625 0-7.722656 3.457032-7.722656 7.726563v17.242187l-37.640625 29.265626c-3.371094 2.621093-3.976563 7.472656-1.355469 10.839843 1.519532 1.960938 3.800782 2.984375 6.101563 2.984375 1.65625 0 3.328125-.53125 4.734375-1.625l35.882812-27.902344 34.019532 26.453126c3.363281 2.617187 8.21875 2.011718 10.839843-1.359376 2.617188-3.367187 2.011719-8.21875-1.355469-10.839843zm0 0" fill="#a6a6a6"/><path d="m166.769531 82.117188 66.703125 72.773437-21.085937 12.804687c-3.644531 2.214844-8.355469 1.433594-11.09375-1.835937l-48.957031-58.535156c-2.28125-2.730469-2.210938-6.730469.175781-9.375zm0 0" fill="#addff5"/><path d="m300.175781 82.117188-66.703125 72.773437 21.085938 12.804687c3.644531 2.214844 8.355468 1.433594 11.089844-1.835937l48.957031-58.535156c2.285156-2.730469 2.214843-6.730469-.171875-9.375zm0 0" fill="#addff5"/><path d="m95.980469 286.355469c-.679688 0-1.371094-.089844-2.054688-.277344l-88.25-24.28125c-4.113281-1.132813-6.527343-5.386719-5.398437-9.5 1.132812-4.109375 5.378906-6.527344 9.5-5.398437l88.246094 24.285156c4.113281 1.132812 6.53125 5.382812 5.398437 9.496094-.941406 3.425781-4.054687 5.675781-7.441406 5.675781zm0 0" fill="#365e80"/><path d="m374.15625 286.355469c-3.394531 0-6.503906-2.25-7.445312-5.675781-1.132813-4.113282 1.285156-8.367188 5.398437-9.496094l88.246094-24.285156c4.117187-1.132813 8.367187 1.285156 9.5 5.398437 1.128906 4.113281-1.285157 8.367187-5.398438 9.5l-88.25 24.28125c-.683593.1875-1.375.277344-2.050781.277344zm0 0" fill="#365e80"/></svg>